<svg xmlns="http://www.w3.org/2000/svg" xmlns:xlink="http://www.w3.org/1999/xlink" id="body_1" preserveAspectRatio="xMinYMin meet" viewBox="0 0 793 1121"><defs><clipPath id="1"><path d="M0 841L0 -0.9000244L0 -0.9000244L595.3 -0.9000244L595.3 -0.9000244L595.3 841L595.3 841L0 841z" /></clipPath><clipPath id="2"><path d="M53.8 20.5L541.5001 20.5L541.5001 20.5L541.5001 107.5L541.5001 107.5L53.8 107.5z" /></clipPath><clipPath id="3"><path d="M50.4 130.1347L544.6 130.1347L544.6 130.1347L544.6 510.6654L544.6 510.6654L50.4 510.6654z" /></clipPath><clipPath id="4"><path d="M51.65 514.7346L551.85 514.7346L551.85 514.7346L551.85 864.7654L551.85 864.7654L51.65 864.7654z" /></clipPath></defs><g transform="matrix(1.333333 0 0 1.333333 0 0)"><g><g clip-path="url(#1)"><g clip-path="url(#2)"><path transform="matrix(1 0 0 -1 0 841)" d="M116.215 736.0563L298.688 736.0563" stroke="#0563C1" stroke-width="0.525" fill="none" /><path transform="matrix(1 0 0 -1 0 841)" d="M348.867 736.0563L512.385 736.0563" stroke="#0563C1" stroke-width="0.525" fill="none" /></g><path transform="matrix(1 0 0 -1 0 841)" d="M59.25 717.05L535.45 717.05" stroke="#636466" stroke-width="0.25" fill="none" /><g clip-path="url(#3)"></g><path transform="matrix(1 0 0 -1 0 841)" d="M59.25 336L535.45 336" stroke="#636466" stroke-width="0.25" fill="none" /><g clip-path="url(#4)"><path transform="matrix(1 0 0 -1 0 841)" d="M116.3846 76.32162L298.8576 76.32162" stroke="#0563C1" stroke-width="0.525" fill="none" /><path transform="matrix(1 0 0 -1 0 841)" d="M365.3576 76.32162L528.8756 76.32162" stroke="#0563C1" stroke-width="0.525" fill="none" /></g><path transform="matrix(1 0 0 -1 0 841)" d="M59.25 55.05005L535.45 55.05005" stroke="#636466" stroke-width="0.25" fill="none" /></g></g></g></svg>